<svg version="1.2" xmlns="http://www.w3.org/2000/svg" viewBox="0 0 204 212" width="204" height="212">
	<title>dmbotbanner2</title>
	<style>
		.s0 { opacity: .98;fill: #cf8343 } 
		.s1 { opacity: .99;fill: #5982ae } 
		.s2 { opacity: .99;fill: #b3b2b5 } 
		.s3 { opacity: 1;fill: #f9fbfa } 
		.s4 { opacity: 1;fill: #022040 } 
	</style>
	<g id="Background">
		<path id="Path 0" class="s0" d="m91 3.3c-1.5 1.4-4.5 2.6-7.5 3.1-2.8 0.4-7.9 1.6-11.5 2.7-3.6 1.1-9.2 3.3-12.5 5-3.4 1.6-7.6 2.9-9.8 2.9-2 0-4.9 0.8-6.4 1.7-1.6 0.9-4.5 3-6.5 4.5q-3.8 2.8-4.4 6c-0.4 2-2.9 5.7-6.3 9.4-3.1 3.4-8.1 10.3-11.1 15.4-3 5.1-6.6 9.9-8 10.6-1.7 1.1-3.2 3.5-4.7 8.2-1.3 3.7-2.3 7.6-2.3 8.7 0.1 1.1 0.7 2.9 1.5 4 0.8 1.1 1.2 2.3 1 2.8-0.3 0.4-0.3 1.6 0 2.7 0.3 1.1 1 1.8 1.5 1.5 0.6-0.3 1-1.8 1-3.5 0-1.7-0.5-4-1.1-5.2-0.9-1.8-0.8-3.6 0.7-8.3 1-3.3 2.5-6.6 3.2-7.2 0.7-0.7 2-1.3 2.8-1.3 0.8 0 2.2-1.7 3.1-3.7 0.9-2.1 3.8-6.9 6.3-10.8 2.6-3.8 7.2-9.7 10.3-13 3.7-3.9 5.6-6.9 5.6-8.5 0.1-1.9 1.5-3.5 5.8-6.7 4.7-3.4 6.4-4.1 8.8-3.7 2 0.4 4.4-0.1 7.5-1.7 2.5-1.2 5.4-2.6 6.5-3.1 1.1-0.4 4.5-1.6 7.5-2.7 3-1 8.8-2.4 12.9-3.2 5-1 7.6-2 8.2-3.1 0.7-1.5 2.3-1.8 8.2-1.8 5.7-0.1 7.6 0.3 8.8 1.7 0.9 1 4.5 2.4 8 3.1 3.5 0.7 8.7 2 11.4 2.8 2.8 0.8 8.8 3.1 13.5 5.1 5.2 2.1 9.3 3.3 10.5 2.9 1.4-0.4 3.8 0.6 7.8 3.4 4.6 3.2 5.7 4.5 5.7 6.8 0 2 1.5 4.2 5.5 8.2 3.1 3 8 9.1 10.9 13.5 2.9 4.4 5.9 9.4 6.7 11.1 0.8 1.8 2.5 3.6 3.9 4 2 0.7 3.1 2.3 4.8 7.4 2 6.1 2 6.7 0.5 9-0.9 1.4-1.3 3.3-0.9 4.3 0.3 0.9 1 1.7 1.6 1.7 0.6 0 1-0.7 1-1.5 0-0.8 0.7-2.7 1.7-4.2 1.5-2.7 1.5-3.2-0.6-9.8-1.2-3.8-3-7.8-3.9-8.8-0.9-1-2.3-1.8-3-1.7-0.6 0-2.5-2.6-4.1-5.7-1.6-3.2-4.9-8.5-7.4-11.8-2.4-3.3-6.3-7.9-8.6-10.2-2.6-2.7-4.1-5.2-4.1-6.8 0-1.4-1-3.4-2.3-4.6-1.2-1.1-4.1-3.4-6.5-5-2.8-1.9-5.4-2.9-8-2.9-2.1 0-6.3-1.2-9.7-2.9-3.3-1.6-8.9-3.8-12.5-4.9-3.6-1.1-8.8-2.3-11.5-2.7-3.4-0.4-5.8-1.4-7.5-3.1-2.3-2.2-3.2-2.4-11-2.4-7.4 0.1-8.8 0.4-11 2.3z"/>
		<path id="Path 1" class="s1" d="m199.8 99.7c0.3 5.4 0 13.7-0.7 18.5-0.9 7.3-0.9 9.2 0.3 11 1.2 2 1.2 3.1-0.5 8.5-1.6 5.2-2.4 6.5-4.9 7.5-1.7 0.8-3.5 2.6-4.2 4.3-0.7 1.7-3.3 6.2-5.8 10-2.6 3.8-7.4 9.9-10.8 13.5-4.4 4.6-6.1 7.3-6.2 9.2 0 2.2-1 3.5-4.5 5.8-2.5 1.7-4.5 3.4-4.5 4 0 0.6-1 0.8-2.3 0.6-1.2-0.2-2.9-0.7-3.7-1-0.9-0.4-2.5 0.2-3.8 1.4-1.2 1.1-2.2 1.8-2.2 1.5 0-0.3-2.4 0.5-5.3 1.6-2.8 1.2-7.7 3-10.7 3.9-3 1-7.5 2.1-10 2.5-2.5 0.4-5.7 1.3-7.3 2.1-1.5 0.8-2.9 1.8-3.2 2.4-0.3 0.6-3.7 1-7.5 1-5.8 0-7.3-0.3-8.8-2-0.9-1.2-2.9-2.2-4.4-2.3-1.6-0.1-2.8-0.4-2.8-0.7 0-0.3-1.5-0.6-3.3-0.7-1.7-0.1-5.9-1.1-9.2-2.1-3.3-1.1-7.8-2.8-10-3.6-2.2-0.9-5.1-2.3-6.5-3.1-1.4-0.8-2.8-1.1-3.3-0.7-0.4 0.4-0.7 0.1-0.7-0.6 0-0.9-0.6-0.9-2.5-0.2-2.2 0.9-3.3 0.4-8.5-3.3-4.5-3.2-6-4.8-6-6.7 0-1.6-2-4.6-5.6-8.5-3.1-3.3-7.3-8.5-9.4-11.5-2-3-4.9-7.8-6.3-10.5q-2.6-5-5.1-5.8c-2.1-0.6-3-2-4.8-7.5-1.9-5.9-2-7-0.7-8.9 1-1.6 1.2-3.5 0.6-7.5-0.4-2.9-0.8-10.5-0.8-16.8 0-6.3-0.3-12.2-0.7-13-0.4-1.2-0.7-1.1-1.3 0.5-0.4 1.1-0.8 7.2-0.8 13.5 0 6.3 0.4 13.3 0.8 15.5 0.6 2.9 0.4 4.6-0.6 6-0.7 1.1-1.3 2.6-1.3 3.2 0 0.7 1 4.6 2.2 8.5 1.7 5.7 2.8 7.6 4.9 8.8 1.6 0.9 4.3 4.4 6.5 8.5 2 3.8 4 7.2 4.4 7.5 0.3 0.3 2 2.5 3.7 5 1.7 2.5 4.7 6.1 6.7 8 2 1.9 3.9 4.8 4.1 6.5 0.4 1.9 2 4.2 4.5 6.2 2.4 2 4.5 3 5.2 2.5q1.3-0.7 0.5 0.5c-0.4 0.8 0.1 1.7 1.5 2.4 1.3 0.6 3.6 1 5.3 0.8 1.6-0.1 5.2 0.8 8 2.1 2.7 1.2 7.7 3.3 11 4.5 3.3 1.3 9.3 2.9 13.3 3.6 5.1 1 8 2.1 9.5 3.7 2 2 3.1 2.2 10.4 2.2 7.4 0 8.5-0.3 10.5-2.4 1.6-1.6 4.3-2.7 8.8-3.5 3.6-0.7 9.3-2.1 12.7-3.2 3.5-1 6.3-2.3 6.3-2.9 0-0.6 0.3-0.8 0.7-0.5 0.5 0.2 2.8-0.6 5.3-1.8 2.9-1.5 5.7-2.1 8-1.9 2.9 0.3 4.5-0.4 10-4.5 5.1-3.8 6.6-5.5 6.8-7.8 0.2-1.9 1.9-4.7 4.7-7.5 2.3-2.5 6.2-7.2 8.6-10.5 2.4-3.4 5.5-8.2 6.9-10.9 1.4-2.6 3.8-5.5 5.5-6.5 2.4-1.4 3.5-3.2 5.5-9.4 2.4-7.3 2.4-7.9 0.9-10.5-0.9-1.5-1.5-4-1.3-5.7 0.2-1.7 0.5-8.4 0.7-15 0.2-6.6 0.1-13.1-0.2-14.4-0.3-1.3-1.1-2.6-1.7-2.8-0.7-0.3-0.9 2.6-0.6 9.4z"/>
		<path id="Path 2" class="s2" d="m31 38.5c-2.5 2.5-4.3 4.5-4 4.5 0.3 0 2.5-2 5-4.5 2.4-2.5 4.2-4.5 3.9-4.5-0.3 0-2.5 2-4.9 4.5zm-26.3 48c0.6 2.3 0.8 2.5 1.1 1 0.2-1.1-0.1-2.5-0.7-3-0.7-0.7-0.8 0-0.4 2zm-0.5 8c0 1.9 0.2 2.3 0.5 1 0.2-1.1 0.2-2.5-0.1-3-0.2-0.5-0.4 0.3-0.4 2zm195.2 11c0 5.5 0.1 7.5 0.3 4.5 0.2-3 0.2-7.5 0-10-0.2-2.5-0.3 0-0.3 5.5zm-176.5 59.5c1.1 1.7 2.3 3 2.6 3 0.3 0-0.4-1.3-1.5-3-1.1-1.7-2.3-3-2.6-3-0.4 0 0.3 1.3 1.5 3zm7.1 8.5c1.4 1.4 2.7 2.6 3 2.6 0.3 0-0.4-1.2-1.6-2.6-1.2-1.4-2.5-2.5-3-2.5-0.5 0 0.2 1.1 1.6 2.5zm80.9 31.2c-1.3 1.5-1.2 1.5 1.1 0.3 1.4-0.7 2.7-1.4 2.9-1.6 0.2-0.2-0.3-0.4-1.1-0.4-0.9 0-2.2 0.7-2.9 1.7z"/>
		<path id="Path 3" class="s3" d="m93.5 7c-1.3 1.2-4.8 2.5-9.5 3.4-4.1 0.8-10.9 2.7-15 4.2-4.1 1.4-9.3 3.6-11.5 4.7-2.2 1.1-5.6 2-7.5 1.9-2.7-0.2-4.7 0.7-8.5 3.6-3.7 2.8-5.1 4.5-5.3 6.7q-0.3 3-5.7 8.5c-2.9 3-7.9 9.3-11 14-3.1 4.7-5.8 9.5-6.1 10.8-0.2 1.2-1 2.2-1.7 2.2-0.6 0-2 0.5-3 1.2-1 0.7-2.7 4-3.7 7.3-1.8 5.4-1.8 6.2-0.5 8.2 1.2 1.9 1.3 3.5 0.5 9-0.5 3.8-1 10-1 13.8 0 3.8 0.5 10.2 1 14 0.8 5.9 0.7 7.2-0.6 8.5-1.4 1.4-1.4 2.1 0.5 8.2 1.7 5.6 2.6 7 4.8 7.8 1.9 0.7 3.6 2.7 5.4 6.3 1.4 2.8 5.1 8.6 8.1 12.7 3.1 4.1 7.2 9.1 9.2 11 2.4 2.3 3.6 4.4 3.6 6-0.1 1.9 1.3 3.5 5.7 6.9 4.5 3.4 6.4 4.2 8.3 3.8 1.7-0.4 4.5 0.3 8.5 2.2 3.3 1.6 8.7 3.8 12 4.9 3.3 1.1 7.3 2.3 9 2.7 1.7 0.4 5 0.9 7.5 1.3 2.8 0.3 5.4 1.5 6.8 2.9 1.8 1.9 3.2 2.3 8.2 2.3 5.2 0 6.3-0.4 8.3-2.5 1.3-1.5 3.3-2.5 4.7-2.5 1.4 0 6.1-0.9 10.5-2 4.4-1.2 11.8-3.8 16.5-5.9q8.5-3.8 11.5-3.4c2.3 0.3 4.2-0.5 8.2-3.4 3.8-2.8 5.3-4.5 5.3-6.3 0-1.6 2-4.6 5.7-8.5 3-3.3 7.9-9.6 10.7-14 2.8-4.4 5.7-9.2 6.4-10.8 0.7-1.5 2.4-3.3 3.9-3.9 2.1-1 3.2-2.8 4.7-7.3 1.7-5.4 1.8-6.3 0.5-8.5-1-1.8-1.3-3.7-0.7-6.5 0.4-2.2 0.7-9.6 0.7-16.5 0-6.9-0.3-14.1-0.8-16-0.7-2.6-0.5-4.1 0.5-5.8 0.9-1.4 1.2-3.4 0.8-5.4-0.4-1.8-1.3-4.9-2-6.8-0.9-2.2-2.2-3.8-3.9-4.3-1.8-0.5-3.4-2.5-5.6-6.9-1.7-3.5-5.3-9.2-7.9-12.8-2.7-3.6-6.7-8.3-8.9-10.5-2.7-2.6-4.1-4.9-4.1-6.5 0-1.9-1.3-3.5-5.3-6.4-4.2-3.1-5.8-3.7-8.2-3.3-1.7 0.3-3.9 0-5-0.7-1.1-0.7-5.6-2.6-10-4.4-4.4-1.7-9.6-3.5-11.5-4.1-1.9-0.5-6.2-1.5-9.5-2.2-3.8-0.7-6.5-1.8-7.3-3-1-1.6-2.5-1.9-8-1.9-5.4 0-7.1 0.4-8.7 2z"/>
		<path id="Path 4" class="s1" d="m13.2 97.5c0 1.9 0.2 2.3 0.5 1 0.2-1.1 0.2-2.5-0.1-3-0.2-0.5-0.4 0.3-0.4 2zm177.1 9c0 3.8 0.2 5.2 0.4 3 0.2-2.2 0.2-5.3 0-7-0.2-1.7-0.4 0.2-0.4 4zm-177.1 8.5c0 1.9 0.2 2.8 0.5 2 0.2-0.8 0.2-2.4 0-3.5-0.3-1.1-0.5-0.4-0.5 1.5zm-1.5 18.1c1.3 0.5 2.3 1.7 2.4 2.6 0 1 0.2 1.2 0.5 0.5 0.2-0.6-0.2-1.9-0.9-2.7-0.6-0.9-1.9-1.5-2.7-1.5-0.9 0.1-0.6 0.5 0.7 1.1zm27.3 36.4c1.9 1.9 3.7 3.5 4 3.5 0.3 0-0.9-1.5-2.6-3.5-1.8-1.9-3.6-3.5-4-3.5-0.5 0 0.7 1.6 2.6 3.5z"/>
		<path id="Path 5" class="s2" d="m95.8 17.7c1.3 0.2 3.1 0.2 4 0 0.9-0.3-0.1-0.5-2.3-0.4-2.2 0-3 0.2-1.7 0.4zm8.7 0c1.1 0.2 2.7 0.2 3.5 0 0.8-0.3-0.1-0.5-2-0.5-1.9 0-2.6 0.2-1.5 0.5zm59.5 25.6c2.5 2.6 4.6 4.7 4.8 4.7 0.1 0 0.2-0.1 0.2-0.3 0-0.1-2.1-2.2-4.7-4.7l-4.8-4.5zm30.7 33.2c0.6 2.4 0.8 2.6 1.1 1 0.2-1.1-0.1-2.4-0.7-3-0.7-0.6-0.8 0-0.4 2zm-31.3 93.8l-2.9 3.2c5.1-4.6 6.5-6.1 6.5-6.2 0-0.2-0.1-0.3-0.3-0.3-0.2 0-1.7 1.5-3.3 3.3z"/>
		<path id="Path 6" fill-rule="evenodd" class="s4" d="m102.5 8.4c0.5 0.2 1.5 1 2 1.9 0.7 1.2 0.5 2.1-0.7 3.4-1.1 1.1-2.3 1.5-3.3 1-0.8-0.4-1.6-1.8-1.7-3.1-0.1-1.4 0.4-2.7 1.2-2.9 0.8-0.3 2-0.4 2.5-0.3zm2 10.1c9.3 0.3 15.1 0.9 20.3 2.4 3.9 1.2 10.2 3.5 13.9 5.2 3.8 1.7 9.7 5.2 13.3 7.7 3.6 2.6 8.3 6.2 10.4 8.2 2.1 1.9 6.6 7.1 10 11.5 3.3 4.4 7.5 11.2 9.2 15 1.8 3.8 4.3 10.6 5.6 15 2 6.8 2.3 10.2 2.3 23 0 12.3-0.4 16.4-2.2 22.5-1.2 4.1-4 11.3-6.2 16-2.2 4.7-6.9 12.1-10.3 16.5-3.5 4.4-9.7 10.7-13.9 14-4.2 3.3-11.1 7.7-15.3 9.8-4.2 2-11.5 4.9-16.3 6.3-6.1 1.7-12.2 2.7-19.8 3.1-8.7 0.4-13 0.1-20.5-1.5-5.2-1-12.9-3.3-17-5-4.1-1.7-10.4-5.1-14-7.4-3.5-2.4-9.9-7.7-14.1-11.8-4.2-4.1-9.4-10.2-11.6-13.5-2.1-3.3-5.3-9.2-7.1-13-1.7-3.8-4.1-10.6-5.3-15-1.6-6.1-2.1-11-2.2-21 0-10.7 0.4-14.5 2.3-21.5 1.3-4.7 3.9-11.9 5.7-16 1.9-4.1 5.3-10 7.5-13 2.1-3 6.2-7.9 9.1-10.9 2.9-3 7.7-7.3 10.7-9.6 3-2.3 8.2-5.6 11.5-7.2 3.3-1.6 8.5-3.9 11.5-5 3-1.2 7.5-2.6 10-3.2 2.5-0.6 5.6-1.3 7-1.5 1.4-0.3 8.3-0.3 15.5-0.1zm-58.5 8.5c1.1 0 2.3 0.7 2.8 1.5 0.4 1 0 2.2-1 3.3-1.7 1.6-1.9 1.6-3.5 0-1.1-1-1.5-2.3-1.1-3.3 0.4-0.8 1.7-1.5 2.8-1.5zm111.6 0c1.9 0 2.4 0.5 2.4 2.5 0 1.5-0.7 2.8-1.7 3.2-1.2 0.4-2.2-0.1-3-1.3-0.7-1-1-2.5-0.7-3.1 0.3-0.7 1.7-1.3 3-1.3zm-146.2 47.2c1.5 0.2 2.1 1 2.1 2.8 0 1.7-0.6 2.6-2 2.8-1.1 0.2-2.3-0.4-2.8-1.2-0.4-0.9-0.4-2.3 0-3.2 0.3-0.8 1.5-1.4 2.7-1.2zm180.9 0c1.6 0.2 2.2 1 2.2 2.8 0 1.9-0.6 2.6-2.3 2.7-1.4 0.2-2.4-0.4-2.8-1.5-0.3-0.9-0.3-2.3 0-3 0.4-0.7 1.7-1.2 2.9-1zm-180.9 59c1.3 0.2 2.2 1.1 2.3 2.5 0.2 1.3-0.4 2.6-1.2 3-1 0.5-2.2 0.2-3.1-0.7-0.9-0.9-1.2-2.2-0.8-3.3 0.4-1.1 1.5-1.7 2.8-1.5zm180.9 0c1.3 0.2 2.3 1.1 2.5 2.3 0.2 1.2-0.4 2.3-1.5 2.8-1.1 0.5-2.3 0.2-3.3-0.7-0.9-1-1.2-2.1-0.7-3.1 0.5-1 1.7-1.5 3-1.3zm-147.1 46.8c0.7-0.1 1.9 0.6 2.5 1.5 0.7 0.8 1.1 2.2 0.8 3-0.3 0.8-1.4 1.5-2.5 1.5-1.1 0-2.3-0.8-2.6-1.7-0.3-1-0.4-2.4 0-3 0.3-0.7 1.1-1.3 1.8-1.3zm112.3 0c0.8 0 1.9 0.8 2.4 1.8 0.4 0.9 0.7 2.3 0.5 3-0.2 0.6-1.3 1.2-2.4 1.2-1.1 0-2.3-0.8-2.6-1.7-0.3-1-0.4-2.4 0-3 0.3-0.7 1.2-1.3 2.1-1.3zm-56.2 18c0.7-0.1 1.9 0.6 2.7 1.5 1.1 1.2 1.2 2.1 0.5 3.2-0.5 0.9-1.6 1.8-2.3 1.9-0.6 0.2-1.9-0.3-2.7-1.1-1.1-1.1-1.2-2-0.5-3.5 0.6-1.1 1.6-2 2.3-2z"/>
		<path id="Path 7" class="s1" d="m111.5 29c-0.3 0.6-1.1 0.7-1.7 0.3q-1.3-0.8-0.5 0.5c0.4 0.6 1.2 1.2 1.7 1.2 0.5 0 1.2-0.7 1.4-1.5 0.2-0.8 0.2-1.5 0-1.5-0.2 0-0.5 0.4-0.9 1zm-65 17c-0.3 0.5 0.3 1.6 1.3 2.3 1.5 1.1 1.6 1 0.5-0.5-1-1.4-1-1.9 0-2.2 0.9-0.3 0.9-0.5 0-0.5-0.7-0.1-1.4 0.4-1.8 0.9zm-2.5 27.7c4.7 0.2 12.8 0.2 18 0 5.2-0.1 1.4-0.3-8.5-0.3-9.9 0-14.2 0.2-9.5 0.3zm51.5 0c-0.5 0.3-0.8 1.1-0.7 1.7q0.2 1.1 1-0.1 0.7-1.2 13.2-1.5l12.5-0.4c-19.5-0.3-25.5-0.1-26 0.3zm59.4 1.1c-1.3 1.5-1.2 1.6 0.4 0.5 1-0.7 5.7-1.4 10.5-1.6l8.7-0.3c-16.8-0.4-18.5-0.1-19.6 1.4zm-28.8 56.3c-0.7 0.6-3.4 0.9-6.1 0.8-2.6-0.2-4.6-0.1-4.4 0.4 0.2 0.4 2.5 0.7 5.2 0.7 3 0.1 5.2-0.5 6-1.5 0.7-0.8 1.2-1.5 1-1.5-0.2 0-1 0.5-1.7 1.1zm-23.4 6.3c0.8 1.7 0.2 1.8-9.9 1.5-5.8-0.2-10.4-0.1-10.2 0.4 0.2 0.4 4.9 0.7 10.4 0.7 7 0 10.2-0.4 10.6-1.2 0.3-0.7 0.1-1.7-0.6-2.3-0.8-0.7-0.9-0.5-0.3 0.9zm64.7-0.1c0.6 1.6-0.7 1.7-15.7 1.9l-16.2 0.2c25.8 0.5 32.2 0.3 32.9-0.4 0.8-0.7 0.7-1.3-0.2-2.2-1.1-1.1-1.2-1-0.8 0.5zm-131.4 2.4c4.1 0.2 10.7 0.2 14.5 0 3.9-0.1 0.5-0.3-7.5-0.3-8 0-11.1 0.2-7 0.3zm117.6 26.6c-0.3 0.6-0.2 1.5 0.2 1.9 0.4 0.4 1.3 0.5 2 0.2 0.6-0.2 1-1.1 0.7-1.9-0.3-0.8-0.9-1.5-1.4-1.5-0.5 0-1.2 0.6-1.5 1.3zm-108.6 1.2c0 0.3 0.9 0.7 2 1 1.1 0.3 2.2 0.2 2.4-0.2 0.2-0.5-0.7-0.9-2-1-1.3-0.2-2.4-0.1-2.4 0.2zm104.8 3c1.3 0.9 1.9 2 1.5 2.8q-0.8 1.2 0.5 0.5c0.9-0.6 0.9-1.2 0-2.8-0.7-1.1-2-2-2.8-2q-1.5 0 0.8 1.5zm-70.3 10.5c1.1 1.1 2.1 2.1 2.3 2 0.1 0-0.2-0.9-0.8-2-0.5-1.1-1.6-2-2.2-2-0.8-0.1-0.5 0.8 0.7 2zm54.6-1.2c0 0.6-0.4 2-0.7 3-0.5 1.2-0.4 1.4 0.5 0.7 0.7-0.6 1-1.9 0.8-3-0.3-1.1-0.5-1.4-0.6-0.7zm-50.3 0.8c0.6 0.2 1 0.8 0.7 1.4-0.3 0.6 0.4 0.7 1.8 0.3 2.1-0.6 2.1-0.7 0.2-1.4-1.1-0.4-2.5-0.8-3-0.8-0.5 0.1-0.4 0.2 0.3 0.5zm34.9 0.2c-0.4 0.6-0.5 1.5-0.2 2 0.3 0.4 0.8 0.5 1.1 0.2 0.3-0.3 0.4-1.2 0.2-2-0.3-1.1-0.6-1.2-1.1-0.2zm9.2 2.7c-1.1 1.2-1.7 1.3-2.7 0.3-0.7-0.7-1.3-1.1-1.3-0.8 0 0.3 0.6 1.1 1.3 1.7 1 1 1.7 0.9 3.2-0.7 1-1.1 1.6-2 1.3-2-0.2 0-1.1 0.7-1.8 1.5zm-52.9 0.5c0 0.6 0.5 1.2 1 1.5 0.5 0.3 1-0.2 1-1 0-0.8-0.5-1.5-1-1.5-0.5 0-1 0.4-1 1zm24.6 0c0.7 0.8 1.4 2.4 1.7 3.5 0.4 1.9 0.5 1.9 0.8-0.1 0.2-1.3-0.4-2.7-1.6-3.5-1.8-1.2-1.9-1.2-0.9 0.1zm6.7 4.8c0.7 0.7 1.9 1.2 2.7 1.1 1.1-0.1 1-0.2-0.2-0.5-1-0.2-1.6-0.7-1.4-1.1 0.2-0.5-0.2-0.8-0.9-0.8-1 0-1.1 0.3-0.2 1.3z"/>
		<path id="Path 8" class="s2" d="m110 27c0 0.6 0.5 1.2 1 1.5 0.5 0.3 1.2 0.1 1.5-0.5 0.3-0.6-0.2-1.2-1-1.5-0.9-0.2-1.6 0-1.5 0.5zm-52.2 10.8c0.8 0.4 1.3 1 1.3 1.4-0.1 0.5 0.1 0.8 0.4 0.8 0.3 0 0.8 0 1.3 0 0.4 0.1 0-0.6-0.8-1.5-0.8-0.9-2-1.6-2.5-1.5-0.5 0-0.4 0.4 0.3 0.8zm-6.8 8.7c0 0.3-0.1 1.1-0.3 1.8-0.1 0.6-1.1 1.1-2.2 1-1.6-0.2-1.7 0-0.7 1 0.9 0.9 1.5 0.9 2.5-0.1 0.6-0.7 1.2-2 1.3-2.8 0.1-0.8 0-1.4-0.2-1.4-0.2 0-0.4 0.2-0.4 0.5zm27.9 83.3l-3.4 3.7c5.8-5.4 7.5-7.1 7.5-7.2 0-0.2-0.1-0.3-0.3-0.3-0.2 0-1.9 1.7-3.8 3.8zm-36.7 25.9c-0.1 0.4 0.6 1.7 1.6 2.9 0.9 1.2 2.5 2.4 3.5 2.8 0.9 0.3 1.5 1 1.2 1.6-0.3 0.6 0 1 0.5 1 0.6 0 0.9-0.6 0.7-1.2-0.2-0.7-1.3-1.7-2.5-2.3-1.2-0.6-2.1-1.4-2.1-1.8 0.1-0.5-0.5-1.5-1.3-2.3-0.8-0.9-1.6-1.2-1.6-0.7zm-3.6 4.3c-0.3 0.5-0.1 1.2 0.4 1.5 0.6 0.3 1.2 0.1 1.5-0.5 0.3-0.6 0.1-1.2-0.4-1.5-0.5-0.3-1.2-0.1-1.5 0.5zm119.7-0.4c-0.1 0.5 0.4 1.8 1.2 2.9 0.8 1.1 1.7 1.8 1.9 1.5 0.2-0.3-0.3-1.6-1.3-2.9-0.9-1.3-1.7-1.9-1.8-1.5zm-110.1 6.4c-0.3 0.5 0.4 0.7 1.6 0.4 1.2-0.2 2.2 0 2.2 0.6 0 0.6-0.6 1.2-1.2 1.4-0.7 0.3-0.5 0.5 0.5 0.5 1 0.1 1.6-0.5 1.5-1.6-0.2-0.9-1.1-1.7-2.1-1.9-1-0.1-2.1 0.2-2.5 0.6zm100.8 1.3c-1.1 1.9-1.1 2 0.1 1 1.1-1 1.7-1 2.9 0 1.2 1 1.2 0.9 0-0.8-0.8-1.1-1.5-2.1-1.5-2.2-0.1-0.1-0.7 0.8-1.5 2zm-92.5 5.5c0.3 0.7-0.1 1.4-0.7 1.6-0.7 0.2-1.1 0.6-0.8 1 0.3 0.3 1.1 0 1.8-0.9 0.8-1 0.8-1.7 0.2-2.2-0.5-0.3-0.8-0.1-0.5 0.5zm80 4.2c-0.3 0.6 0.1 1.3 0.8 1.7 0.6 0.4 1.9 0.9 2.7 1 0.8 0.2 1.1 0 0.7-0.5-0.5-0.4-1.4-0.7-2-0.7-0.7-0.1-1.1-0.6-1-1.3 0-0.7-0.1-1.2-0.3-1.2-0.1 0-0.5 0.4-0.9 1zm-7.4 3.3l-1.4 2.2c3.4-3.1 4.4-4.1 4.3-4.2 0-0.2-0.4-0.3-0.8-0.3-0.4 0-1.4 1-2.1 2.3zm-59.3-0.1c0.1 0.4 0.9 0.8 1.7 0.8 0.8 0 1.7-0.3 1.9-0.7 0.2-0.5-0.5-0.8-1.7-0.8-1.2-0.1-2 0.3-1.9 0.7zm51 0.4c0.6 0.2 1 0.7 0.8 1.2-0.2 0.4 0.4 0.8 1.5 1 1 0.1 1.8-0.3 1.7-0.9-0.2-0.7-1.4-1.3-2.8-1.5-1.4-0.1-1.9-0.1-1.2 0.2z"/>
		<path id="Path 9" class="s3" d="m101.2 24.6c-0.5 1.1-0.1 2 1.3 2.6 1.7 0.9 1.8 1.2 0.5 1.9q-1.5 0.9-0.3 0.9c0.7 0 1.6-0.5 2-1.1 0.5-0.7 0.1-1.5-1-2-0.9-0.5-1.7-1.4-1.7-1.9 0-0.6 0.4-0.8 1-0.5 0.5 0.3 1 0 1-0.5 0-0.6-0.5-1-1-1-0.6 0-1.4 0.7-1.8 1.6zm-11.1 2.6c0 2.4 0.2 2.9 0.8 1.8 0.8-1.3 1.1-1.3 2.7 0 1.6 1.3 1.7 1.3 0.9 0-0.5-0.8-1-2.2-1-3 0-0.8-0.7-1.6-1.7-1.8-1.2-0.3-1.6 0.4-1.7 3zm20.9-2.5c0 0.7 0.7 2 1.5 2.8 0.8 0.8 2 1.3 2.5 1 0.5-0.3 1.2 0.3 1.4 1.2 0.2 1 0.4 0.2 0.4-1.7 0-1.9-0.1-2.9-0.4-2.3-0.2 0.7-1 1.3-1.7 1.3-0.6-0.1-1.7-0.8-2.4-1.8-0.8-1-1.2-1.2-1.3-0.5zm-27.4 1c-0.3 0.5-0.3 1.8 0 3 0.3 1.6 1.1 2.3 2.6 2.2 1.7 0 1.9-0.2 0.8-0.7-0.8-0.4-1.6-1.4-1.8-2.2-0.2-0.8 0.3-1.8 1-2.2 0.9-0.6 0.8-0.8-0.4-0.8-0.9 0-1.9 0.3-2.2 0.7zm37.4 1c-0.8 0.2-1.3 1.5-1.2 2.9 0.1 1.3 1 2.6 1.9 2.9 1 0.3 2.5-0.1 3.3-1 1.1-1.1 1.2-2 0.5-3.2-0.5-0.9-1.5-1.7-2-1.9-0.5-0.1-1.7 0-2.5 0.3zm-42.8 2c-0.9 1.6-1.2 1.6-2.6 0.3-1.5-1.3-1.7-1.3-1.6 0.2 0 1 0.9 2 2 2.3 1.3 0.3 2.2-0.1 2.6-1.3 0.6-1.5 0.8-1.5 1.5-0.2 0.7 1.3 0.9 1.3 1-0.2 0.1-0.9-0.4-1.9-0.9-2.3-0.6-0.3-1.5 0.3-2 1.2zm50.4 1.8c-0.3 0.8-0.6 1.8-0.6 2.2 0 0.5 0.4 0.1 1-0.7 0.7-1.2 1.1-0.9 2 1.5 0.9 2.4 1.3 2.7 2 1.5 0.6-0.8 1-1.8 1-2.3 0-0.4-0.4-0.5-1-0.2-0.6 0.3-1.2-0.4-1.3-1.5-0.2-1.1-0.9-2-1.5-2-0.5 0-1.3 0.7-1.6 1.5zm-59.6 1.5c0 1.1-0.3 2-0.8 2-0.4 0-1.3-0.5-2-1.2-1-1.1-1.2-1-1.2 0.2 0 0.8 0.6 2.4 1.5 3.5 1.2 1.6 1.4 1.7 1 0.2-0.3-1.1 0-1.7 1-1.7 0.8 0 1.5-0.6 1.5-1.3q0-1.2 1 0.3 1 1.5 1 0.2c0-0.6-0.2-1.9-0.5-2.7-0.3-0.8-1-1.5-1.5-1.5-0.5 0-1 0.9-1 2zm69 1.5c0 0.9 0.6 1.3 1.5 1 0.8-0.3 1.5-0.7 1.5-0.9-0.1-0.2-0.8-0.6-1.6-1-0.9-0.3-1.5 0-1.4 0.9zm-77 0.7c0 0.5 0.6 1.7 1.3 2.8 0.6 1 0.8 2.3 0.4 2.7-0.4 0.4-1.8 0.2-3-0.6-2-1.3-2.1-1.3-0.7 0.3 0.8 0.9 2.1 1.7 2.8 1.6 0.6 0 1.4-0.7 1.7-1.5 0.3-0.8-0.2-2.5-1-3.8-0.8-1.2-1.5-1.9-1.5-1.5zm81 3.8c-0.8 1.6-0.7 1.9 0.5 1.5 0.8-0.3 1.5-1.2 1.5-2 0-0.8-0.2-1.5-0.5-1.5-0.2 0-0.9 0.9-1.5 2zm4.2 0.8c-0.8 0.4-1.2 1.6-1 2.6 0.3 1.7 0.5 1.6 1.4-0.7 0.7-1.5 1.1-2.7 1-2.7 0 0-0.7 0.4-1.4 0.8zm-94 1c-1 0.5-0.8 1.3 0.8 3.2 1.2 1.4 1.9 1.9 1.6 1.2-0.3-0.7 0.1-1.2 0.9-1.2 1.2 0 1.3-0.4 0.5-2-0.5-1.1-1.3-2-1.8-2-0.4 0-1.3 0.4-2 0.8zm97.2 2.2c-1 1.1-1.7 2.2-1.4 2.4 0.3 0.2 1.3-0.7 2.2-2 1-1.3 1.6-2.4 1.4-2.4-0.2 0-1.2 0.9-2.2 2zm5.4 3.5c-0.1 1.3 0 2.5 0.4 2.5 0.5 0 0.8-1.1 0.8-2.5 0-1.4-0.2-2.5-0.4-2.5-0.2 0-0.6 1.1-0.8 2.5zm-106.4-0.8c1.1 0.2 2.1 1.1 2.3 1.9 0.2 0.8-0.2 1.6-0.7 1.9-0.5 0.3-1.9-0.3-3.1-1.3-1.6-1.3-1.9-1.4-1.5-0.2 0.3 0.8 1.3 1.8 2.3 2.3 1 0.4 2.4 0.3 3.1-0.3 0.8-0.7 0.9-1.6 0.2-3-0.5-1.1-1.8-1.9-2.7-1.9-1.5 0.1-1.5 0.2 0.1 0.6zm-12.4 30.3c0 0.5 1.4 1.2 3 1.5 1.7 0.3 3 1 3 1.5 0 0.5-0.5 3.1-1.1 5.7-0.5 2.7-1.4 6.6-1.9 8.8-0.5 2.2-1.8 8.9-3 15-1.2 6-3.1 14.9-4.1 19.7-1 4.9-1.9 9.5-1.9 10.3 0 1.3 2.3 1.5 16.3 1.2 12.9-0.3 17.3-0.7 21.6-2.3 3-1 7.5-3.7 9.9-5.9 2.5-2.2 5.5-5.8 6.7-8 1.3-2.2 3.3-7.2 4.5-11 1.6-4.8 2.3-9.5 2.3-15 0-5.9-0.4-9-1.9-11.9-1-2.2-3.2-4.9-4.9-6.1-1.7-1.2-5.1-2.7-7.8-3.4-2.6-0.6-12.7-1.1-22.7-1.1-11.3 0-18 0.4-18 1zm60 0c0 0.5 1.3 1.2 3 1.5 1.7 0.3 3 0.9 3 1.5 0 0.5-1.8 9.9-4 20.7-2.2 10.9-4.8 23.6-5.7 28.3l-1.8 8.4c-5.8 1.2-7.5 2-7.5 2.6 0 0.6 4 1 10 1 6 0 10-0.4 10-1 0-0.6-1.4-1.3-3-1.8-1.7-0.4-3-1.4-3-2.2 0-0.8 1.1-6.9 2.5-13.5 1.4-6.6 3.5-16.5 4.5-22 1.1-5.5 2-10.1 2-10.3 0-0.1 0.5-0.2 1-0.2 0.5 0 1.3 1.9 1.6 4.2 0.3 2.4 2.1 12.2 4 21.8 1.9 9.6 3.4 17.6 3.4 17.7 0 0.2 2.1 0.3 4.7 0.3 3.9 0 5.1-0.4 6.2-2.2 0.8-1.3 3.7-5.9 6.4-10.3 2.8-4.4 5.5-8.9 6.1-10 0.6-1.1 2.7-4.5 4.6-7.5 1.9-3 4.1-6.6 4.8-8 0.7-1.4 2-3.4 2.7-4.5 0.8-1.1 1.7-1.8 1.9-1.5 0.3 0.3-0.6 5.5-1.9 11.5-1.2 6-3.3 16.2-4.5 22.5-1.3 6.3-2.8 12.1-3.4 12.8-0.6 0.7-2.3 1.5-3.9 1.7-1.5 0.3-2.7 0.9-2.7 1.5 0 0.6 5.8 1 15.5 1 9.7 0 15.5-0.4 15.5-1 0-0.6-0.4-1-1-1-0.6 0-2-0.4-3.3-0.9l-2.2-0.9c4.3-21.5 6.5-32.2 7.5-37.7 1.1-5.5 2.5-13 3.2-16.7l1.3-6.8-17-0.1c-13.9 22.1-18.5 29.5-19.1 30.6-0.6 1.1-2.8 4.7-4.9 8l-3.9 6c-1.3-4.7-2.4-10-3.2-15-0.8-5-1.9-11.7-2.5-15-0.6-3.3-1.3-7.9-1.7-10.3l-0.7-4.2c-19.7 0-24.5 0.4-24.5 1zm-57 81.2c-0.8 0.7-1.3 1.7-1.2 2.2 0 0.6 0.9 1.8 1.8 2.6 1.6 1.4 1.6 1.3 0.3-0.8-1.3-2.1-1.2-2.5 0.6-3.8 1.1-0.8 1.5-1.4 1-1.4-0.6 0-1.7 0.5-2.5 1.2zm121.5-0.2c-0.3 0.6-0.3 1.4 0 2 0.3 0.6 1.2 0.7 2.1 0.2 1-0.4 1.9-0.1 2.5 0.8 0.7 1.3 0.9 1.2 0.9-0.3 0-1.2-0.7-1.6-2.5-1.5-1.6 0.2-2.3-0.1-2.1-1 0.2-0.6 0.2-1.2 0-1.2-0.2 0-0.5 0.4-0.9 1zm-3.3 3.2c-0.8 1-0.5 1.7 1.1 2.7 2 1.3 2.1 1.3 0.9-0.2-0.6-1-1-2.1-0.7-2.7 0.2-0.6 0.3-1 0.1-1-0.2 0-0.9 0.6-1.4 1.2zm-114.2 4.3c-0.1 0.6 0.6 1.6 1.5 2.2 0.8 0.7 2.2 1.1 3 0.8 0.8-0.3 1.5-1.1 1.4-1.8 0-1-0.1-1-0.5 0-0.2 0.7-1.1 1.3-1.9 1.3-0.8 0-1.9-0.8-2.5-1.8-0.5-0.9-1-1.3-1-0.7zm111.8 0.1c0.6 0.2 1.2 1.1 1.2 1.9 0 0.8 0.4 1.5 1 1.5 0.6 0 1-0.3 1-0.8 0-0.4-0.5-1.3-1.2-2-0.7-0.7-1.7-1.2-2.3-1.1-0.6 0-0.4 0.2 0.3 0.5zm-104.9 3.9c-1.3 1.4-1.9 2.5-1.4 2.5 0.6-0.1 1.8-1.1 2.8-2.3 1-1.2 1.7-2.3 1.7-2.5 0-0.1-0.1-0.2-0.3-0.2-0.2 0-1.5 1.1-2.8 2.5zm101.2-2c0 0.6 0.6 1.9 1.4 3 0.9 1.1 1.5 1.6 1.5 1 0-0.6-0.6-1.9-1.5-3-0.8-1.1-1.4-1.6-1.4-1zm-3.9 2.7c-0.7 0.9-0.5 2 0.9 3.8 1.6 2 2.2 2.2 3.1 1.2 0.9-0.9 0.8-1.2-0.5-1.2-0.9 0-1.5-0.4-1.2-1 0.3-0.6 0.1-1-0.5-1-0.6 0-0.8-0.7-0.6-1.5 0.2-0.8 0.2-1.5 0.1-1.5-0.2 0-0.7 0.6-1.3 1.2zm-95.8 1.8c0.3 0.6 1.1 0.7 1.8 0.2 0.8-0.5 1 0 0.4 1.8-0.8 2.4-0.8 2.4 0.8 0.5 0.8-1.1 1.6-2.3 1.6-2.8 0-0.4-1.2-0.7-2.6-0.7-1.5 0-2.3 0.4-2 1zm5.2 2.5c-0.3 0.8-0.2 1.3 0.4 1 0.6-0.3 1.2 0.2 1.5 1 0.3 0.9 1 1.2 1.7 0.7 0.9-0.5 1-0.2 0.5 1-0.4 1.1-0.3 1.6 0.3 1.3 0.6-0.3 1.5-1.4 2-2.5 0.9-1.8 0.7-1.9-1.5-1.5-1.8 0.4-2.5 0.1-2.5-1 0-0.8-0.4-1.5-0.9-1.5-0.5 0-1.2 0.7-1.5 1.5zm87.4-0.5c0 0.6-0.3 1.8-0.7 2.7-0.6 1.5-0.4 1.6 0.8 0.6 1.1-1 1.7-1 2.7 0 1.1 1 1.1 0.7 0-1.6-0.7-1.5-1.6-2.7-2-2.7-0.5 0-0.8 0.4-0.8 1zm-4.1 3.3c0.8 1.2 1.5 2.4 1.8 2.7 0.2 0.3 0.3-0.5 0.3-1.6-0.1-1.2-0.8-2.4-1.7-2.8-1.5-0.5-1.5-0.3-0.4 1.7zm-71.7 2.7c-0.7 1.1-1.6 2-2.2 2-0.5 0-1.2-0.6-1.3-1.3-0.2-0.6-0.3-0.5-0.3 0.3 0.1 0.8 0.8 1.6 1.6 1.8 0.8 0.1 2.1-0.7 2.8-1.8 0.6-1.1 1.1-2.2 0.9-2.5-0.2-0.2-0.9 0.5-1.5 1.5zm66.8 1c0 2.7 0.2 2.8 1.5 1.5 0.8-0.8 2.1-1.2 2.8-0.8 0.6 0.3 0.3-0.3-0.8-1.6-1.1-1.2-2.3-2.2-2.7-2.1-0.5 0-0.8 1.3-0.8 3zm-64-0.8c0 1 0.5 1.8 1 1.8 0.6 0 1 0.9 1 2 0 1.1 0.5 2.2 1 2.5 0.6 0.3 1.2-0.2 1.5-1 0.3-0.8 0.5-1.7 0.5-2 0-0.3-0.4-0.3-1 0-0.5 0.3-1 0.2-1-0.3 0-0.4-0.6-1.6-1.5-2.7-1.3-1.8-1.4-1.8-1.5-0.3zm55 1.5c0 0.5 0.5 1.5 1 2.3q1 1.5 1 0.2c0-0.9 0.6-0.8 2.5 0.3 1.4 0.8 2.5 1.1 2.5 0.5 0-0.6-0.3-1.8-0.6-2.8-0.6-1.5-0.8-1.5-1.5-0.2-0.7 1.2-1.1 1.3-2.1 0.2-0.7-0.7-1.6-1.2-2-1.2-0.5 0-0.8 0.3-0.8 0.7zm-47.9 1c-0.1 0.7-0.4 2.1-0.7 3-0.5 1.7-0.5 1.7 0.5 0 0.6-0.9 0.9-2.3 0.7-3-0.4-1-0.5-1-0.5 0zm3.2 3.2c-0.1 3.4-0.1 3.4 0.9 1.1 0.5-1.4 1.5-2.8 2.1-3.1 0.7-0.4 0.4-0.8-0.9-1.1-1.8-0.4-2.1 0-2.1 3.1zm39.7-3c-1.2 0.8-1.3 1.4-0.3 3.3 0.6 1.3 1.2 1.7 1.2 1 0.1-0.6 0.6-1 1.1-0.7 0.6 0.3 1 0.1 1-0.5 0-0.6-0.7-1-1.5-1-0.8 0-1.3-0.4-1-1 0.3-0.6 1.1-0.7 1.8-0.3q1.2 0.8 0.5-0.5c-0.5-0.6-0.9-1.2-1-1.2-0.2 0-1 0.4-1.8 0.9zm-33.9 2.1c0 0.8 0.3 2.3 0.7 3.2 0.6 1.5 0.8 1.4 1.7-0.6 0.6-1.3 0.6-2 0.1-1.7-0.4 0.3-1.2-0.1-1.7-0.9-0.8-1.3-0.9-1.3-0.8 0zm14.6 3c0.2 1.7 0.5 3 0.8 3 0.3 0 0.6-1.3 0.8-3 0.1-1.6-0.3-3-0.8-3-0.6 0-1 1.3-0.8 3zm4.7-1.8c-0.3 0.7-0.3 2.1 0 3 0.4 1.1 1.4 1.7 2.9 1.5 1.6-0.1 2.2-0.8 2.2-2.7 0-1.8-0.6-2.6-2.2-2.8-1.2-0.2-2.5 0.3-2.9 1zm7.9 1.2c0.1 1.1 0.9 2.1 1.7 2.3q1.5 0.4 0.4-0.4c-0.6-0.4-1.4-1.5-1.7-2.3q-0.7-1.6-0.4 0.4z"/>
		<path id="Path 10" class="s4" d="m47 46.3c-0.1 0.1 0.6 0.9 1.5 1.7 1.4 1.3 1.6 1.3 1.5-0.2 0-1-0.7-1.8-1.5-1.8-0.8 0-1.5 0.1-1.5 0.3zm-1.8 117.3c0.1 0.8 0.7 1.6 1.3 1.7 0.5 0.1 1-0.6 1.1-1.5 0-1-0.6-1.8-1.4-1.8-0.7 0-1.2 0.7-1 1.6z"/>
		<path id="Path 11" class="s1" d="m58 81c0 1.1 0.2 2 0.5 2 0.3 0 0.7-0.9 1-2 0.3-1.1 0-2-0.5-2-0.5 0-1 0.9-1 2zm-8.5 52.7c1.1 0.2 3.1 0.2 4.5 0 1.4-0.2 0.5-0.4-2-0.4-2.5 0-3.6 0.2-2.5 0.4z"/>
		<path id="Path 12" class="s2" d="m121.3 31.9c-0.4 0.4 0.2 0.7 1.4 0.7 1.2-0.1 2.3-0.3 2.5-0.6 0.2-0.3-0.4-0.6-1.4-0.7-1-0.1-2.2 0.2-2.5 0.6zm-47 59.6c0 2.8 0.2 3.7 0.4 2 0.2-1.7 0.2-3.9 0-5-0.2-1.1-0.4 0.3-0.4 3z"/>
		<path id="Path 13" class="s3" d="m124.5 29.5c0 1.3 0.3 2.1 0.8 1.9 0.4-0.2 0.7-1 0.8-1.8 0.1-0.8-0.3-1.7-0.7-1.9-0.5-0.3-0.9 0.5-0.9 1.8z"/>
		<path id="Path 14" class="s4" d="m121.5 29c-0.3 0.6 0 1.2 0.5 1.5 0.5 0.3 1.5 0.3 2 0 0.5-0.3 0.8-0.9 0.5-1.5-0.3-0.6-0.9-1-1.5-1-0.5 0-1.1 0.4-1.5 1zm-62 51.1c-0.4 0.8-3.1 13-5.9 27.1l-5.1 25.8c8.5 0.1 10.8-0.5 12.8-2 1.5-1.1 3.6-3.7 4.6-5.8 1-2 2.8-6.6 3.9-10.2 1.2-3.6 2.6-9.7 3.3-13.5 0.6-3.8 0.9-9.5 0.6-12.5-0.3-3.4-1.3-6.2-2.4-7.3-1-1-3.9-2.1-6.4-2.4-3.2-0.4-4.8-0.1-5.4 0.8zm48.1 105.1c-0.4 0.7-0.4 1.7 0.2 2.3q1 1 1.7-0.5c0.4-0.8 0.3-1.9-0.2-2.3-0.5-0.5-1.2-0.3-1.7 0.5z"/>
	</g>
</svg>