<?xml version="1.0" encoding="UTF-8"?>
<svg xmlns="http://www.w3.org/2000/svg" xmlns:xlink="http://www.w3.org/1999/xlink" width="24px" height="24px" viewBox="0 0 24 24" version="1.1">
<g id="surface1">
<path style=" stroke:none;fill-rule:nonzero;fill:rgb(100%,100%,100%);fill-opacity:1;" d="M 14.109375 1.171875 C 14.203125 1.234375 14.203125 1.234375 14.289062 1.316406 C 14.335938 1.363281 14.335938 1.363281 14.386719 1.40625 C 14.539062 1.554688 14.695312 1.703125 14.84375 1.851562 C 14.878906 1.886719 14.910156 1.921875 14.945312 1.957031 C 15.0625 2.070312 15.175781 2.183594 15.285156 2.296875 C 15.367188 2.378906 15.449219 2.457031 15.53125 2.539062 C 15.730469 2.738281 15.929688 2.9375 16.125 3.132812 C 16.285156 3.292969 16.449219 3.457031 16.609375 3.617188 C 17.066406 4.074219 17.523438 4.527344 17.976562 4.984375 C 18.003906 5.007812 18.027344 5.035156 18.050781 5.058594 C 18.078125 5.082031 18.101562 5.109375 18.125 5.132812 C 18.527344 5.53125 18.925781 5.933594 19.324219 6.332031 C 19.734375 6.742188 20.144531 7.148438 20.554688 7.558594 C 20.785156 7.789062 21.015625 8.019531 21.246094 8.25 C 21.460938 8.464844 21.679688 8.683594 21.894531 8.898438 C 21.972656 8.976562 22.054688 9.058594 22.132812 9.136719 C 22.242188 9.246094 22.347656 9.351562 22.457031 9.460938 C 22.503906 9.507812 22.503906 9.507812 22.554688 9.558594 C 22.582031 9.585938 22.613281 9.613281 22.640625 9.644531 C 22.667969 9.671875 22.691406 9.695312 22.71875 9.722656 C 22.824219 9.84375 22.878906 9.9375 22.867188 10.101562 C 22.824219 10.226562 22.785156 10.289062 22.695312 10.382812 C 22.667969 10.417969 22.636719 10.449219 22.605469 10.484375 C 22.382812 10.714844 22.152344 10.945312 21.925781 11.175781 C 21.867188 11.230469 21.808594 11.289062 21.75 11.347656 C 21.59375 11.503906 21.441406 11.660156 21.285156 11.816406 C 21.121094 11.976562 20.957031 12.140625 20.792969 12.304688 C 20.484375 12.613281 20.175781 12.921875 19.867188 13.230469 C 19.515625 13.582031 19.164062 13.933594 18.8125 14.285156 C 18.085938 15.007812 17.363281 15.730469 16.640625 16.453125 C 16.5 16.390625 16.402344 16.320312 16.289062 16.207031 C 16.242188 16.160156 16.242188 16.160156 16.195312 16.113281 C 16.160156 16.078125 16.128906 16.046875 16.09375 16.011719 C 16.039062 15.957031 16.039062 15.957031 15.980469 15.898438 C 15.859375 15.777344 15.738281 15.652344 15.613281 15.53125 C 15.527344 15.445312 15.4375 15.355469 15.351562 15.269531 C 15.160156 15.078125 14.972656 14.890625 14.785156 14.699219 C 14.511719 14.425781 14.238281 14.152344 13.964844 13.878906 C 13.519531 13.433594 13.078125 12.992188 12.632812 12.546875 C 12.203125 12.117188 11.773438 11.683594 11.339844 11.253906 C 11.316406 11.226562 11.289062 11.199219 11.261719 11.171875 C 11.128906 11.039062 10.996094 10.90625 10.863281 10.773438 C 9.757812 9.667969 8.652344 8.558594 7.546875 7.453125 C 7.628906 7.273438 7.742188 7.152344 7.878906 7.015625 C 7.90625 6.988281 7.929688 6.964844 7.953125 6.9375 C 8.039062 6.855469 8.121094 6.773438 8.203125 6.691406 C 8.261719 6.632812 8.320312 6.570312 8.382812 6.511719 C 8.542969 6.351562 8.703125 6.191406 8.863281 6.027344 C 9.035156 5.859375 9.203125 5.691406 9.371094 5.523438 C 9.652344 5.238281 9.9375 4.957031 10.222656 4.671875 C 10.546875 4.347656 10.875 4.019531 11.203125 3.691406 C 11.484375 3.410156 11.765625 3.128906 12.046875 2.847656 C 12.214844 2.679688 12.382812 2.511719 12.550781 2.34375 C 12.707031 2.183594 12.867188 2.027344 13.023438 1.871094 C 13.082031 1.8125 13.140625 1.753906 13.199219 1.695312 C 13.277344 1.617188 13.355469 1.539062 13.4375 1.457031 C 13.46875 1.421875 13.46875 1.421875 13.503906 1.386719 C 13.710938 1.183594 13.824219 1.089844 14.109375 1.171875 Z M 14.109375 1.171875 "/>
<path style=" stroke:none;fill-rule:nonzero;fill:rgb(100%,100%,100%);fill-opacity:1;" d="M 5.953125 8.953125 C 6.199219 9.160156 6.425781 9.375 6.652344 9.601562 C 6.707031 9.65625 6.707031 9.65625 6.761719 9.710938 C 6.882812 9.832031 7.003906 9.949219 7.125 10.070312 C 7.210938 10.15625 7.296875 10.242188 7.382812 10.332031 C 7.566406 10.515625 7.753906 10.703125 7.9375 10.886719 C 8.207031 11.15625 8.476562 11.425781 8.746094 11.691406 C 9.179688 12.128906 9.617188 12.566406 10.050781 13 C 10.472656 13.425781 10.898438 13.847656 11.320312 14.269531 C 11.347656 14.296875 11.371094 14.324219 11.398438 14.347656 C 11.53125 14.480469 11.660156 14.613281 11.792969 14.742188 C 12.875 15.828125 13.960938 16.914062 15.046875 18 C 15.003906 18.050781 14.960938 18.101562 14.914062 18.15625 C 14.890625 18.183594 14.867188 18.210938 14.839844 18.242188 C 14.726562 18.375 14.601562 18.5 14.476562 18.625 C 14.453125 18.648438 14.429688 18.671875 14.40625 18.699219 C 14.164062 18.941406 14.164062 18.941406 14.015625 18.984375 C 13.554688 18.929688 13.210938 18.417969 12.902344 18.097656 C 12.761719 17.953125 12.621094 17.808594 12.476562 17.667969 C 12.296875 17.484375 12.117188 17.300781 11.941406 17.117188 C 11.796875 16.96875 11.648438 16.820312 11.503906 16.671875 C 11.449219 16.617188 11.394531 16.558594 11.339844 16.503906 C 11.019531 16.144531 11.019531 16.144531 10.589844 15.96875 C 10.246094 15.996094 10.09375 16.195312 9.875 16.4375 C 9.816406 16.5 9.757812 16.5625 9.699219 16.625 C 9.671875 16.660156 9.640625 16.691406 9.609375 16.726562 C 9.457031 16.894531 9.300781 17.058594 9.148438 17.21875 C 9.082031 17.289062 9.019531 17.355469 8.957031 17.421875 C 8.925781 17.457031 8.894531 17.488281 8.859375 17.523438 C 8.703125 17.691406 8.546875 17.855469 8.390625 18.023438 C 8.328125 18.089844 8.265625 18.15625 8.203125 18.222656 C 8.171875 18.253906 8.140625 18.289062 8.109375 18.320312 C 7.078125 19.417969 7.078125 19.417969 6.984375 19.519531 C 6.921875 19.582031 6.859375 19.648438 6.796875 19.714844 C 6.640625 19.882812 6.484375 20.050781 6.328125 20.214844 C 6.28125 20.265625 6.28125 20.265625 6.230469 20.316406 C 6.167969 20.382812 6.105469 20.449219 6.042969 20.515625 C 5.886719 20.683594 5.730469 20.851562 5.578125 21.019531 C 5 21.664062 5 21.664062 4.59375 21.796875 C 4.542969 21.816406 4.492188 21.835938 4.4375 21.859375 C 3.925781 21.953125 3.445312 21.902344 2.988281 21.644531 C 2.527344 21.320312 2.222656 20.898438 2.109375 20.34375 C 2.0625 19.792969 2.15625 19.332031 2.496094 18.894531 C 2.636719 18.726562 2.796875 18.582031 2.957031 18.433594 C 3.007812 18.382812 3.007812 18.382812 3.0625 18.335938 C 3.167969 18.238281 3.269531 18.144531 3.375 18.046875 C 3.429688 17.996094 3.484375 17.945312 3.539062 17.894531 C 3.636719 17.804688 3.734375 17.714844 3.832031 17.625 C 4.089844 17.386719 4.34375 17.148438 4.597656 16.910156 C 4.746094 16.773438 4.890625 16.636719 5.039062 16.5 C 5.097656 16.445312 5.15625 16.390625 5.214844 16.335938 C 5.332031 16.226562 5.449219 16.117188 5.566406 16.007812 C 5.609375 15.96875 5.609375 15.96875 5.65625 15.925781 C 5.710938 15.871094 5.769531 15.816406 5.828125 15.761719 C 5.976562 15.625 6.125 15.484375 6.273438 15.347656 C 6.527344 15.113281 6.78125 14.875 7.035156 14.640625 C 7.085938 14.59375 7.132812 14.546875 7.183594 14.5 C 7.308594 14.382812 7.4375 14.273438 7.566406 14.164062 C 7.890625 13.90625 7.890625 13.90625 8.035156 13.53125 C 8.042969 13.277344 7.917969 13.125 7.753906 12.945312 C 7.703125 12.898438 7.65625 12.847656 7.605469 12.800781 C 7.578125 12.773438 7.554688 12.746094 7.523438 12.71875 C 7.46875 12.660156 7.410156 12.605469 7.351562 12.546875 C 7.257812 12.457031 7.167969 12.363281 7.074219 12.273438 C 6.878906 12.078125 6.683594 11.886719 6.488281 11.691406 C 6.261719 11.46875 6.035156 11.242188 5.808594 11.019531 C 5.71875 10.929688 5.628906 10.839844 5.539062 10.75 C 5.484375 10.695312 5.425781 10.640625 5.371094 10.582031 C 5.347656 10.558594 5.320312 10.535156 5.296875 10.507812 C 5.175781 10.390625 5.074219 10.285156 5.015625 10.125 C 5.03125 9.949219 5.074219 9.851562 5.195312 9.722656 C 5.222656 9.691406 5.253906 9.660156 5.28125 9.628906 C 5.503906 9.398438 5.726562 9.175781 5.953125 8.953125 Z M 3.5625 19.78125 C 3.488281 19.925781 3.503906 20.042969 3.515625 20.203125 C 3.601562 20.332031 3.660156 20.414062 3.796875 20.484375 C 3.992188 20.503906 4.09375 20.503906 4.257812 20.398438 C 4.386719 20.269531 4.402344 20.230469 4.421875 20.046875 C 4.402344 19.847656 4.359375 19.78125 4.21875 19.640625 C 3.960938 19.511719 3.753906 19.589844 3.5625 19.78125 Z M 3.5625 19.78125 "/>
<path style=" stroke:none;fill-rule:nonzero;fill:rgb(100%,100%,100%);fill-opacity:1;" d="M 6.984375 7.921875 C 7.125 7.984375 7.222656 8.054688 7.335938 8.167969 C 7.382812 8.214844 7.382812 8.214844 7.429688 8.261719 C 7.464844 8.296875 7.496094 8.328125 7.53125 8.363281 C 7.570312 8.402344 7.605469 8.4375 7.644531 8.476562 C 7.765625 8.597656 7.886719 8.722656 8.011719 8.84375 C 8.097656 8.929688 8.1875 9.019531 8.273438 9.105469 C 8.464844 9.296875 8.652344 9.484375 8.839844 9.675781 C 9.113281 9.949219 9.386719 10.222656 9.660156 10.496094 C 10.105469 10.941406 10.546875 11.382812 10.992188 11.828125 C 11.421875 12.257812 11.851562 12.691406 12.285156 13.121094 C 12.308594 13.148438 12.335938 13.175781 12.363281 13.203125 C 12.496094 13.335938 12.628906 13.46875 12.761719 13.601562 C 13.867188 14.707031 14.972656 15.816406 16.078125 16.921875 C 16 17.09375 15.902344 17.199219 15.765625 17.332031 C 15.710938 17.386719 15.710938 17.386719 15.652344 17.445312 C 15.621094 17.472656 15.59375 17.503906 15.5625 17.53125 C 15.316406 17.324219 15.089844 17.109375 14.863281 16.882812 C 14.808594 16.828125 14.808594 16.828125 14.753906 16.773438 C 14.632812 16.652344 14.511719 16.535156 14.390625 16.414062 C 14.304688 16.328125 14.21875 16.242188 14.132812 16.152344 C 13.949219 15.96875 13.761719 15.78125 13.578125 15.597656 C 13.308594 15.328125 13.039062 15.058594 12.769531 14.792969 C 12.335938 14.355469 11.898438 13.917969 11.464844 13.484375 C 11.042969 13.058594 10.617188 12.636719 10.195312 12.214844 C 10.167969 12.1875 10.144531 12.160156 10.117188 12.136719 C 9.984375 12.003906 9.855469 11.871094 9.722656 11.742188 C 8.640625 10.65625 7.554688 9.570312 6.46875 8.484375 C 6.511719 8.433594 6.558594 8.378906 6.601562 8.328125 C 6.636719 8.285156 6.636719 8.285156 6.675781 8.242188 C 6.773438 8.128906 6.878906 8.027344 6.984375 7.921875 Z M 6.984375 7.921875 "/>
</g>
</svg>
