<svg xmlns="http://www.w3.org/2000/svg" viewBox="0 0 330 330" xml:space="preserve">
  <path d="M51.213 165.004 190.607 25.607c5.857-5.858 5.857-15.355-.001-21.213-5.857-5.858-15.355-5.858-21.213.001l-150 150.004a14.995 14.995 0 0 0 .001 21.212l150 149.996C172.322 328.536 176.161 330 180 330s7.678-1.464 10.607-4.394c5.857-5.858 5.857-15.355-.001-21.213z"/>
  <path d="M171.213 165.004 310.607 25.607c5.858-5.858 5.858-15.355 0-21.213s-15.355-5.858-21.213.001l-150 150.004a15 15 0 0 0 .001 21.213l150 149.996A14.95 14.95 0 0 0 300 330a14.95 14.95 0 0 0 10.607-4.394c5.858-5.858 5.858-15.355 0-21.213z"/>
</svg>
