<svg width="800" height="800" viewBox="0 0 24 24" xmlns="http://www.w3.org/2000/svg"><g fill="none"><path d="M24 0v24H0V0zM12.593 23.258l-.011.002-.071.035-.02.004-.014-.004-.071-.035q-.016-.005-.024.005l-.004.01-.017.428.005.02.01.013.104.074.015.004.012-.004.104-.074.012-.016.004-.017-.017-.427q-.004-.016-.017-.018m.265-.113-.013.002-.185.093-.01.01-.003.011.018.43.005.012.008.007.201.093q.019.005.029-.008l.004-.014-.034-.614q-.005-.018-.02-.022m-.715.002a.02.02 0 0 0-.027.006l-.006.014-.034.614q.001.018.017.024l.015-.002.201-.093.01-.008.004-.011.017-.43-.003-.012-.01-.01z"/><path d="M13 13a4 4 0 0 1 4 4v1.5a1.5 1.5 0 0 1-1.5 1.5h-12A1.5 1.5 0 0 1 2 18.5V17a4 4 0 0 1 4-4zm6 0a3 3 0 0 1 3 3v1.5a1.5 1.5 0 0 1-1.5 1.5H19v-2a5 5 0 0 0-2-4zM9.5 3a4.5 4.5 0 1 1 0 9 4.5 4.5 0 0 1 0-9M18 6a3 3 0 1 1 0 6 3 3 0 0 1 0-6" fill="#FFFFFF"/></g></svg>